<svg class="cd-icons-sprite" xmlns="http://www.w3.org/2000/svg" xmlns:xlink="http://www.w3.org/1999/xlink"><symbol viewBox="0 0 48 48" id="cd-icon--add" xmlns="http://www.w3.org/2000/svg"><path d="M44 20H28V4a4 4 0 0 0-4-4 4 4 0 0 0-4 4v16H4a4 4 0 0 0 0 8h16v16a4 4 0 0 0 4 4 4 4 0 0 0 4-4V28h16a4 4 0 0 0 0-8z"/></symbol><symbol viewBox="0 0 48 48" id="cd-icon--add--white" xmlns="http://www.w3.org/2000/svg"><path fill="#fff" d="M44 20H28V4a4 4 0 0 0-4-4 4 4 0 0 0-4 4v16H4a4 4 0 0 0 0 8h16v16a4 4 0 0 0 4 4 4 4 0 0 0 4-4V28h16a4 4 0 0 0 0-8z"/></symbol><symbol viewBox="0 0 48 48" id="cd-icon--arrow-down" xmlns="http://www.w3.org/2000/svg"><path d="M48 14a4 4 0 0 1-1.17 2.83l-20 20a4 4 0 0 1-5.66 0l-20-20a4 4 0 0 1 5.66-5.66L24 28.34l17.17-17.17A4 4 0 0 1 48 14z"/></symbol><symbol viewBox="0 0 48 48" id="cd-icon--arrow-down--highlighted" xmlns="http://www.w3.org/2000/svg"><path fill="#EB5C6D" d="M48 14a4 4 0 0 1-1.17 2.83l-20 20a4 4 0 0 1-5.66 0l-20-20a4 4 0 0 1 5.66-5.66L24 28.34l17.17-17.17A4 4 0 0 1 48 14z"/></symbol><symbol viewBox="0 0 48 48" id="cd-icon--arrow-left" xmlns="http://www.w3.org/2000/svg"><path d="M34 48a4 4 0 0 1-2.83-1.17l-20-20a4 4 0 0 1 0-5.66l20-20a4 4 0 0 1 5.66 5.66L19.66 24l17.17 17.17A4 4 0 0 1 34 48z"/></symbol><symbol viewBox="0 0 48 48" id="cd-icon--arrow-right" xmlns="http://www.w3.org/2000/svg"><path d="M14 48a4 4 0 0 1-2.83-6.83L28.34 24 11.17 6.83a4 4 0 0 1 5.66-5.66l20 20a4 4 0 0 1 0 5.66l-20 20A4 4 0 0 1 14 48z"/></symbol><symbol viewBox="0 0 48 48" id="cd-icon--arrow-up" xmlns="http://www.w3.org/2000/svg"><path d="M0 34a4 4 0 0 1 1.17-2.83l20-20a4 4 0 0 1 5.66 0l20 20a4 4 0 1 1-5.66 5.66L24 19.66 6.83 36.83A4 4 0 0 1 0 34z"/></symbol><symbol viewBox="0 0 48 48" id="cd-icon--arrow-up--highlighted" xmlns="http://www.w3.org/2000/svg"><path fill="#EB5C6D" d="M0 34a4 4 0 0 1 1.17-2.83l20-20a4 4 0 0 1 5.66 0l20 20a4 4 0 1 1-5.66 5.66L24 19.66 6.83 36.83A4 4 0 0 1 0 34z"/></symbol><symbol viewBox="0 0 32 32" id="cd-icon--creative-commons" xmlns="http://www.w3.org/2000/svg"><path fill="#fff" d="M15.886 28.968c-7.159.009-12.857-5.804-12.884-12.802C2.975 9.069 8.849 3.104 15.904 3.285c6.356-.152 12.793 4.975 12.829 12.839.035 7.721-6.201 12.836-12.847 12.844zM15.907.254C6.554.198.034 8.091 0 16.082-.036 24.585 6.961 32.009 15.827 32c8.53-.009 15.954-6.753 15.885-15.803.111-8.79-6.935-15.89-15.805-15.943z"/><path fill="#fff" d="M25.263 18.406c-.958 1.921-3.394 2.767-5.132 2.632-4.489-.347-5.501-3.918-4.747-6.567.701-2.462 3.115-3.831 6.002-3.466 1.667.21 2.961.886 3.863 2.334l-2.382 1.157c-.165-.166-.288-.268-.381-.388-.535-.7-1.25-.982-2.19-.822-.93.158-1.479.714-1.589 1.482a8.264 8.264 0 0 0 .039 2.482c.126.777.707 1.336 1.62 1.462.99.137 1.856-.059 2.38-.931.065-.108.161-.201.309-.382l2.208 1.007z"/><path fill="#fff" d="M16.842 13.347l-2.391 1.138c-.156-.15-.304-.262-.412-.4-.545-.698-1.269-.964-2.203-.797-.888.159-1.44.687-1.541 1.432a8.907 8.907 0 0 0 .03 2.557c.122.784.725 1.323 1.637 1.444.956.126 1.8-.056 2.326-.887.081-.128.193-.241.346-.43l2.206 1.014c-.357.81-.978 1.311-1.659 1.759-2.518 1.661-6.749.909-7.962-1.851-1.013-2.305-.422-5.145 1.656-6.505 2.136-1.398 5.664-1.088 7.33.691.212.226.376.49.636.834z"/></symbol><symbol viewBox="0 0 28 48" id="cd-icon--help" xmlns="http://www.w3.org/2000/svg"><circle class="ajcls-1" cx="14" cy="44" r="4"/><path class="ajcls-1" d="M28 14a14 14 0 0 0-28 0 4 4 0 0 0 8 0 6 6 0 1 1 6 6 4 4 0 0 0-4 4v9a4 4 0 0 0 8 0v-5.59A14.02 14.02 0 0 0 28 14z"/></symbol><symbol viewBox="0 0 48 48" id="cd-icon--search" xmlns="http://www.w3.org/2000/svg"><path d="M46.829 41.172L38.4 32.744a21.018 21.018 0 1 0-5.657 5.657l8.427 8.427a4 4 0 0 0 5.658-5.656zM8 21a13 13 0 1 1 22.325 9.046c-.05.045-.106.078-.154.126s-.08.104-.125.154A12.992 12.992 0 0 1 8 21z"/></symbol><symbol viewBox="0 0 48 48" id="cd-icon--selected" xmlns="http://www.w3.org/2000/svg"><path d="M18.5 39.75a4 4 0 0 1-2.83-1.17l-12.5-12.5a4 4 0 0 1 5.66-5.66l9.67 9.67L39.17 9.42a4 4 0 0 1 5.66 5.66l-23.5 23.5a4 4 0 0 1-2.83 1.17z"/></symbol><symbol viewBox="0 0 48 48" id="cd-icon--selected--highlighted" xmlns="http://www.w3.org/2000/svg"><path fill="#80CBFF" d="M18.5 39.75a4 4 0 0 1-2.83-1.17l-12.5-12.5a4 4 0 0 1 5.66-5.66l9.67 9.67L39.17 9.42a4 4 0 0 1 5.66 5.66l-23.5 23.5a4 4 0 0 1-2.83 1.17z"/></symbol><symbol viewBox="0 0 48 48" id="cd-icon--sm-fb-def" xmlns="http://www.w3.org/2000/svg"><path d="M24 5A19 19 0 1 1 5 24 19 19 0 0 1 24 5m0-3a22 22 0 1 0 22 22A22 22 0 0 0 24 2z"/><path d="M29.16 13h-3.52c-2.09 0-4.41.88-4.41 3.9v3.2h-2.41v3.84h2.49V35h4.57V23.87h3l.27-3.78h-3.34v-2.17c0-1.2 1.24-1.13 1.32-1.13h2V13z"/></symbol><symbol viewBox="0 0 48 48" id="cd-icon--sm-fb-full" xmlns="http://www.w3.org/2000/svg"><path d="M24 2a22 22 0 1 0 22 22A22 22 0 0 0 24 2zm4.9 21.87h-3V35h-4.59V23.94h-2.49V20.1h2.41v-3.2c0-3 2.32-3.9 4.41-3.9h3.52v3.79h-2c-.07 0-1.32-.07-1.32 1.13v2.17h3.37z"/></symbol><symbol viewBox="0 0 48 48" id="cd-icon--sm-gh-def" xmlns="http://www.w3.org/2000/svg"><path d="M14.46 26.8a.16.16 0 0 1 0-.26.71.71 0 0 1 .66-.2 1.15 1.15 0 0 1 .46.13 3 3 0 0 1 1 .89 6.7 6.7 0 0 0 .89 1 2.45 2.45 0 0 0 3.23.2 2 2 0 0 1 .43-.79 2 2 0 0 1 .56-.46q.26-.13.92-.39a12.25 12.25 0 0 1-3.52-.76A6 6 0 0 1 17 24.69a5.52 5.52 0 0 1-1.28-3.09 7.92 7.92 0 0 1 .3-3.49 5.8 5.8 0 0 1 1.12-1.78 5.89 5.89 0 0 1 .2-3.75A6.84 6.84 0 0 1 21.1 14a14.42 14.42 0 0 1 6.85 0 12.37 12.37 0 0 1 1.42-.82 5.79 5.79 0 0 1 2.4-.56 7.1 7.1 0 0 1 .36 1.71 5.66 5.66 0 0 1-.1 1.84 6.07 6.07 0 0 1 1.58 4.21 7.48 7.48 0 0 1-.72 3.49 5.56 5.56 0 0 1-2.57 2.3 9.15 9.15 0 0 1-3.29.72 4.36 4.36 0 0 1 1.35 1 2.9 2.9 0 0 1 .56 1.55v2.07l.07 2a2.47 2.47 0 0 0 .92.89.22.22 0 0 1 .13.3q-.07.2-.53.2a2.19 2.19 0 0 1-1.78-.9 1.51 1.51 0 0 1-.2-.79v-3.12a1 1 0 0 0-.26-.76 1.28 1.28 0 0 0-.53-.3v4.15a2.6 2.6 0 0 0 .24 1.45 1.55 1.55 0 0 1 .33.66s0 .08-.1.1a1.27 1.27 0 0 1-.56-.1 1.63 1.63 0 0 1-1.18-.89 3.4 3.4 0 0 1-.33-1.48v-4.08h-.86v4.08a3.62 3.62 0 0 1-.3 1.51 1.85 1.85 0 0 1-1.71 1q-.2-.07-.2-.13a5.58 5.58 0 0 0 .39-.66 3.05 3.05 0 0 0 .16-.53 3.82 3.82 0 0 0 .1-.92V29a1.07 1.07 0 0 0-.49.3 1 1 0 0 0-.23.76v3.16a1.51 1.51 0 0 1-.2.79 2.08 2.08 0 0 1-1.78.79q-.46 0-.53-.2a.18.18 0 0 1 0-.23 2 2 0 0 1 .3-.23 2 2 0 0 0 .26-.2 1.2 1.2 0 0 0 .39-.53 2.5 2.5 0 0 0 .1-1.38 6.64 6.64 0 0 1 0-1.45 3.8 3.8 0 0 1-3.47-.58A6.43 6.43 0 0 1 16 28.51a6.64 6.64 0 0 0-1.58-1.71z"/><path d="M24 5A19 19 0 1 1 5 24 19 19 0 0 1 24 5m0-3a22 22 0 1 0 22 22A22 22 0 0 0 24 2z"/></symbol><symbol viewBox="0 0 48 48" id="cd-icon--sm-gh-full" xmlns="http://www.w3.org/2000/svg"><path d="M24 2a22 22 0 1 0 22 22A22 22 0 0 0 24 2zm8.89 21.84a5.56 5.56 0 0 1-2.57 2.3 9.15 9.15 0 0 1-3.29.72 4.36 4.36 0 0 1 1.35 1 2.9 2.9 0 0 1 .56 1.55v2.07l.07 2a2.47 2.47 0 0 0 .92.89.22.22 0 0 1 .13.3q-.07.2-.53.2a2.19 2.19 0 0 1-1.78-.87 1.51 1.51 0 0 1-.2-.79v-3.12a1 1 0 0 0-.26-.76 1.28 1.28 0 0 0-.53-.3v4.15a2.6 2.6 0 0 0 .24 1.45 1.55 1.55 0 0 1 .33.66s0 .08-.1.1a1.27 1.27 0 0 1-.56-.1 1.63 1.63 0 0 1-1.18-.89 3.4 3.4 0 0 1-.33-1.48v-4.08h-.86v4.08a3.62 3.62 0 0 1-.3 1.51 1.85 1.85 0 0 1-1.71 1q-.2-.07-.2-.13a5.56 5.56 0 0 0 .39-.66 3 3 0 0 0 .16-.53 3.82 3.82 0 0 0 .1-.92V29a1.07 1.07 0 0 0-.49.3 1 1 0 0 0-.23.76v3.16a1.51 1.51 0 0 1-.2.79 2.08 2.08 0 0 1-1.78.79q-.46 0-.53-.2a.18.18 0 0 1 0-.23 2 2 0 0 1 .3-.23 2 2 0 0 0 .26-.2 1.2 1.2 0 0 0 .39-.53 2.5 2.5 0 0 0 .1-1.38 6.64 6.64 0 0 1 0-1.45 3.8 3.8 0 0 1-3.47-.58A6.43 6.43 0 0 1 16 28.51a6.64 6.64 0 0 0-1.58-1.71.16.16 0 0 1 0-.26.71.71 0 0 1 .66-.2 1.14 1.14 0 0 1 .46.13 3 3 0 0 1 1 .89 6.69 6.69 0 0 0 .89 1 2.45 2.45 0 0 0 3.23.2 2.12 2.12 0 0 1 1-1.25q.26-.13.92-.4a12.25 12.25 0 0 1-3.52-.76A6 6 0 0 1 17 24.69a5.52 5.52 0 0 1-1.28-3.09 7.92 7.92 0 0 1 .3-3.49 5.79 5.79 0 0 1 1.12-1.78 5.89 5.89 0 0 1 .2-3.75A6.83 6.83 0 0 1 21.1 14a14.42 14.42 0 0 1 6.85 0 12.37 12.37 0 0 1 1.42-.82 5.79 5.79 0 0 1 2.4-.56 7.1 7.1 0 0 1 .36 1.71 5.66 5.66 0 0 1-.1 1.84 6.06 6.06 0 0 1 1.58 4.21 7.48 7.48 0 0 1-.72 3.46z"/></symbol><symbol viewBox="0 0 48 48" id="cd-icon--sm-ig-def" xmlns="http://www.w3.org/2000/svg"><path d="M24 2a22 22 0 1 0 22 22A22 22 0 0 0 24 2zm0 41a19 19 0 1 1 19-19 19 19 0 0 1-19 19z"/><path d="M24 18.09A5.91 5.91 0 1 0 29.91 24 5.9 5.9 0 0 0 24 18.09zm0 9.74A3.83 3.83 0 1 1 27.83 24 3.83 3.83 0 0 1 24 27.83z"/><circle cx="30.14" cy="17.86" r="1.38"/><path d="M34.9 16.47a5.88 5.88 0 0 0-3.36-3.36 8.43 8.43 0 0 0-2.79-.53c-1.23-.06-1.62-.07-4.74-.07s-3.52 0-4.74.07a8.44 8.44 0 0 0-2.79.53 5.88 5.88 0 0 0-3.36 3.36 8.44 8.44 0 0 0-.53 2.79c-.06 1.23-.07 1.62-.07 4.74s0 3.52.07 4.74a8.44 8.44 0 0 0 .53 2.79 5.88 5.88 0 0 0 3.36 3.36 8.44 8.44 0 0 0 2.79.53c1.23.06 1.62.07 4.74.07s3.52 0 4.74-.07a8.44 8.44 0 0 0 2.79-.53 5.88 5.88 0 0 0 3.36-3.36 8.41 8.41 0 0 0 .53-2.79c.06-1.23.07-1.62.07-4.74s0-3.52-.07-4.74a8.44 8.44 0 0 0-.53-2.79zm-1.54 12.18a6.38 6.38 0 0 1-.4 2.14A3.81 3.81 0 0 1 30.78 33a6.35 6.35 0 0 1-2.14.4c-1.21.06-1.58.07-4.65.07s-3.43 0-4.65-.07a6.35 6.35 0 0 1-2.14-.4 3.81 3.81 0 0 1-2.2-2.22 6.35 6.35 0 0 1-.4-2.14c-.06-1.21-.07-1.58-.07-4.65s0-3.43.07-4.65a6.38 6.38 0 0 1 .4-2.14 3.81 3.81 0 0 1 2.22-2.2 6.35 6.35 0 0 1 2.14-.4c1.21-.06 1.58-.07 4.65-.07s3.43 0 4.65.07a6.38 6.38 0 0 1 2.14.4 3.81 3.81 0 0 1 2.2 2.22 6.35 6.35 0 0 1 .4 2.14c.06 1.21.07 1.58.07 4.65s-.05 3.42-.11 4.64z"/></symbol><symbol viewBox="0 0 48 48" id="cd-icon--sm-ig-full" xmlns="http://www.w3.org/2000/svg"><circle cx="24" cy="24" r="3.83"/><path d="M33 17.22A3.81 3.81 0 0 0 30.78 15a6.38 6.38 0 0 0-2.14-.4c-1.21-.05-1.58-.07-4.65-.07s-3.43 0-4.65.07a6.35 6.35 0 0 0-2.14.4 3.81 3.81 0 0 0-2.2 2.22 6.38 6.38 0 0 0-.4 2.14c-.05 1.21-.07 1.58-.07 4.65s0 3.44.07 4.65a6.36 6.36 0 0 0 .4 2.14 3.81 3.81 0 0 0 2.22 2.2 6.35 6.35 0 0 0 2.14.4c1.21.06 1.58.07 4.65.07s3.44 0 4.65-.07a6.35 6.35 0 0 0 2.14-.4 3.81 3.81 0 0 0 2.2-2.22 6.38 6.38 0 0 0 .4-2.14c.06-1.21.07-1.58.07-4.65s0-3.43-.07-4.65a6.35 6.35 0 0 0-.4-2.12zm-9 12.69A5.91 5.91 0 1 1 29.91 24 5.9 5.9 0 0 1 24 29.91zm6.14-10.66a1.38 1.38 0 1 1 1.38-1.38 1.38 1.38 0 0 1-1.38 1.37z"/><path d="M24 2a22 22 0 1 0 22 22A22 22 0 0 0 24 2zm11.43 26.74a8.41 8.41 0 0 1-.53 2.79 5.88 5.88 0 0 1-3.36 3.36 8.44 8.44 0 0 1-2.79.53c-1.23.06-1.62.07-4.74.07s-3.51 0-4.74-.07a8.44 8.44 0 0 1-2.79-.53 5.88 5.88 0 0 1-3.36-3.36 8.44 8.44 0 0 1-.53-2.79c-.06-1.23-.07-1.62-.07-4.74s0-3.52.07-4.74a8.44 8.44 0 0 1 .53-2.79 5.88 5.88 0 0 1 3.36-3.36 8.44 8.44 0 0 1 2.79-.53c1.23-.06 1.62-.07 4.74-.07s3.51 0 4.74.07a8.43 8.43 0 0 1 2.79.53 5.88 5.88 0 0 1 3.36 3.36 8.44 8.44 0 0 1 .53 2.79c.06 1.23.07 1.62.07 4.74s-.01 3.51-.07 4.74z"/></symbol><symbol viewBox="0 0 48 48" id="cd-icon--sm-ln-def" xmlns="http://www.w3.org/2000/svg"><path d="M24 5A19 19 0 1 1 5 24 19 19 0 0 1 24 5m0-3a22 22 0 1 0 22 22A22 22 0 0 0 24 2z"/><ellipse cx="16.07" cy="14.58" rx="2.56" ry="2.58"/><path d="M13.92 19h4.33v14h-4.33zM29.4 18.57a4.88 4.88 0 0 0-4.22 2.31V19H21v14h4.16v-7.35c0-2 .91-3.14 2.64-3.14s2.36 1.13 2.36 3.14V33h4.31v-8.86c.02-3.75-2.1-5.57-5.07-5.57z"/></symbol><symbol viewBox="0 0 48 48" id="cd-icon--sm-ln-full" xmlns="http://www.w3.org/2000/svg"><path d="M24 2a22 22 0 1 0 22 22A22 22 0 0 0 24 2zm-5.74 31h-4.34V19h4.33zm-2.19-15.83a2.58 2.58 0 1 1 2.56-2.58 2.57 2.57 0 0 1-2.56 2.58zM34.49 33h-4.31v-7.35c0-2-.77-3.14-2.36-3.14s-2.64 1.17-2.64 3.14V33H21V19h4.16v1.89a4.88 4.88 0 0 1 4.22-2.31c3 0 5.09 1.81 5.09 5.56z"/></symbol><symbol viewBox="0 0 48 48" id="cd-icon--sm-rss-def" xmlns="http://www.w3.org/2000/svg"><path d="M24 5A19 19 0 1 1 5 24 19 19 0 0 1 24 5m0-3a22 22 0 1 0 22 22A22 22 0 0 0 24 2z"/><path d="M20.7 31.18a2.85 2.85 0 1 1-2.85-2.81 2.84 2.84 0 0 1 2.85 2.81zM37 34a22 22 0 0 0-22-22v5a17.49 17.49 0 0 1 14.92 8.2 16.65 16.65 0 0 1 2.49 8.8H37zm-7.78 0A14 14 0 0 0 24 23.13 14.27 14.27 0 0 0 15 20v4.2a9.94 9.94 0 0 1 8.67 5 9.79 9.79 0 0 1 1.25 4.8h4.3z"/></symbol><symbol viewBox="0 0 48 48" id="cd-icon--sm-rss-full" xmlns="http://www.w3.org/2000/svg"><path d="M24 2a22 22 0 1 0 22 22A22 22 0 0 0 24 2zm-6.15 32a2.81 2.81 0 1 1 2.85-2.81A2.84 2.84 0 0 1 17.85 34zm11.37 0h-4.3a9.79 9.79 0 0 0-1.25-4.78 9.94 9.94 0 0 0-8.67-5V20a14.27 14.27 0 0 1 9 3.15A14 14 0 0 1 29.22 34zM37 34h-4.59a16.65 16.65 0 0 0-2.49-8.72A17.49 17.49 0 0 0 15 17.06V12a22 22 0 0 1 22 22z"/></symbol><symbol viewBox="0 0 48 48" id="cd-icon--sm-tt-def" xmlns="http://www.w3.org/2000/svg"><path d="M24 5A19 19 0 1 1 5 24 19 19 0 0 1 24 5m0-3a22 22 0 1 0 22 22A22 22 0 0 0 24 2z"/><path d="M36 16.56a9.83 9.83 0 0 1-2.83.78 4.94 4.94 0 0 0 2.16-2.72 9.84 9.84 0 0 1-3.13 1.19 4.93 4.93 0 0 0-8.52 3.37 5 5 0 0 0 .13 1.12 14 14 0 0 1-10.15-5.14 4.93 4.93 0 0 0 1.52 6.57 4.9 4.9 0 0 1-2.18-.62v.06A4.93 4.93 0 0 0 16.91 26a4.9 4.9 0 0 1-1.3.17 5 5 0 0 1-.93-.09 4.93 4.93 0 0 0 4.6 3.42 9.91 9.91 0 0 1-7.29 2 14 14 0 0 0 21.57-11.76v-.64A10 10 0 0 0 36 16.56z"/></symbol><symbol viewBox="0 0 48 48" id="cd-icon--sm-tt-full" xmlns="http://www.w3.org/2000/svg"><path d="M24 2a22 22 0 1 0 22 22A22 22 0 0 0 24 2zm9.54 17.11v.64A14 14 0 0 1 12 31.54a9.92 9.92 0 0 0 7.29-2 4.93 4.93 0 0 1-4.6-3.42 5 5 0 0 0 .93.09 4.9 4.9 0 0 0 1.3-.17A4.93 4.93 0 0 1 13 21.17v-.06a4.9 4.9 0 0 0 2.23.62 4.93 4.93 0 0 1-1.52-6.57 14 14 0 0 0 10.15 5.14 5 5 0 0 1-.13-1.12 4.93 4.93 0 0 1 8.52-3.37 9.83 9.83 0 0 0 3.13-1.19 4.94 4.94 0 0 1-2.16 2.72 9.83 9.83 0 0 0 2.78-.78 10 10 0 0 1-2.46 2.55z"/></symbol><symbol viewBox="0 0 48 48" id="cd-icon--sm-yt-def" xmlns="http://www.w3.org/2000/svg"><path d="M32.58 16.83c-1.72-.45-8.59-.45-8.59-.45s-6.75 0-8.46.42a3 3 0 0 0-2.11 2A26.77 26.77 0 0 0 13 24a26.77 26.77 0 0 0 .42 5.24 3 3 0 0 0 2.11 2c1.72.46 8.46.42 8.46.42s6.75 0 8.46-.42a3 3 0 0 0 2.08-2A27.91 27.91 0 0 0 35 24a28.42 28.42 0 0 0-.47-5.24 2.74 2.74 0 0 0-1.95-1.93zM21.26 27.38v-6.76L26.74 24z"/><path d="M24 2a22 22 0 1 0 22 22A22 22 0 0 0 24 2zm0 41a19 19 0 1 1 19-19 19 19 0 0 1-19 19z"/></symbol><symbol viewBox="0 0 48 48" id="cd-icon--sm-yt-full" xmlns="http://www.w3.org/2000/svg"><path d="M24 2a22 22 0 1 0 22 22A22 22 0 0 0 24 2zm10.54 27.24a3 3 0 0 1-2.08 2c-1.72.45-8.46.42-8.46.42s-6.75 0-8.46-.42a3 3 0 0 1-2.11-2A26.77 26.77 0 0 1 13 24a26.77 26.77 0 0 1 .42-5.24 3 3 0 0 1 2.11-2c1.72-.45 8.46-.42 8.46-.42s6.87 0 8.59.45a2.74 2.74 0 0 1 1.94 1.93A28.42 28.42 0 0 1 35 24a27.91 27.91 0 0 1-.46 5.24z"/><path d="M21.25 27.38l5.5-3.38-5.5-3.38v6.76z"/></symbol><symbol viewBox="0 0 48 48" id="cd-icon--user" xmlns="http://www.w3.org/2000/svg"><path d="M23 24h2a16 16 0 0 1 16 16v4H7v-4a16 16 0 0 1 16-16z"/><rect x="15" y="4" width="18" height="18" rx="9" ry="9"/></symbol><symbol viewBox="0 0 48 48" id="cd-icon--user--white" xmlns="http://www.w3.org/2000/svg"><path fill="#fff" d="M23 24h2a16 16 0 0 1 16 16v4H7v-4a16 16 0 0 1 16-16z"/><rect fill="#fff" x="15" y="4" width="18" height="18" rx="9" ry="9"/></symbol></svg>