<svg viewBox="0 0 48 48" xmlns="http://www.w3.org/2000/svg"><path d="M97.072 75.11a5.027 5.027 0 1 1-5.027 5.026 5.027 5.027 0 0 1 5.027-5.027m0-.794a5.82 5.82 0 1 0 5.821 5.821 5.82 5.82 0 0 0-5.82-5.82z" transform="matrix(3.77953 0 0 3.77953 -342.89 -278.875)"/><path d="M714.163 519.284 1160.89 0h-105.86L667.137 450.887 357.328 0H0l468.492 681.821L0 1226.37h105.866l409.625-476.152 327.181 476.152H1200L714.137 519.284zM569.165 687.828l-47.468-67.894-377.686-540.24h162.604l304.797 435.991 47.468 67.894 396.2 566.721H892.476L569.165 687.854z" transform="translate(11.484 11.154) scale(.02075)"/></svg>
