<svg width="14" height="14" xmlns="http://www.w3.org/2000/svg"><path d="M714.163 519.284 1160.89 0h-105.86L667.137 450.887 357.328 0H0l468.492 681.821L0 1226.37h105.866l409.625-476.152 327.181 476.152H1200L714.137 519.284zM569.165 687.828l-47.468-67.894-377.686-540.24h162.604l304.797 435.991 47.468 67.894 396.2 566.721H892.476L569.165 687.854z" transform="translate(-607.555 -606.253)"/><path d="M714.163 519.284 1160.89 0h-105.86L667.137 450.887 357.328 0H0l468.492 681.821L0 1226.37h105.866l409.625-476.152 327.181 476.152H1200L714.137 519.284zM569.165 687.828l-47.468-67.894-377.686-540.24h162.604l304.797 435.991 47.468 67.894 396.2 566.721H892.476L569.165 687.854zm-658.26-814.23h1371.471c24.156 0 43.602 19.874 43.602 44.56v1401.61c0 24.686-19.446 44.56-43.602 44.56H-89.094c-24.156 0-43.603-19.874-43.603-44.56V-81.843c0-24.686 19.447-44.56 43.603-44.56z" transform="matrix(.00958 0 0 .00938 1.282 1.196)"/></svg>
