<svg xmlns="http://www.w3.org/2000/svg" viewBox="0 0 17.14 24"><defs><style>.cls-1{fill:#4c8cca;}</style></defs><title>Asset 4</title><g id="Layer_2" data-name="Layer 2"><g id="Layer_1-2" data-name="Layer 1"><path class="cls-1" d="M13.59,20a.45.45,0,0,0-.45.45V24l4-4H13.59Z"/><path class="cls-1" d="M4.41,9.18h-.8V11.4h.8a.79.79,0,0,0,.8-.8V10a.79.79,0,0,0-.8-.8Z"/><path class="cls-1" d="M8.86,9.18h-.8v5.3h.8a.8.8,0,0,0,.8-.81V10a.79.79,0,0,0-.8-.8Z"/><path class="cls-1" d="M16.61,0H.54A.56.56,0,0,0,0,.57V23.43A.56.56,0,0,0,.54,24H12V20.45a1.59,1.59,0,0,1,1.59-1.59h3.55V.57A.56.56,0,0,0,16.61,0ZM6.28,10.6a1.91,1.91,0,0,1-.55,1.33,2,2,0,0,1-.59.4,2,2,0,0,1-.73.14h-.8v2.59a.49.49,0,0,1-.16.37.49.49,0,0,1-.38.16.47.47,0,0,1-.37-.16.49.49,0,0,1-.16-.37V8.64a.49.49,0,0,1,.16-.37.47.47,0,0,1,.37-.16H4.41a2,2,0,0,1,.73.14,1.84,1.84,0,0,1,.59.41,1.71,1.71,0,0,1,.4.59,1.8,1.8,0,0,1,.15.73Zm4.45,3.07a1.94,1.94,0,0,1-.14.73,1.91,1.91,0,0,1-.4.6,2,2,0,0,1-.6.4,1.79,1.79,0,0,1-.73.14H7.53a.52.52,0,0,1-.38-.15A.49.49,0,0,1,7,15V8.64a.49.49,0,0,1,.16-.37.49.49,0,0,1,.38-.16H8.86a2,2,0,0,1,.73.14,1.89,1.89,0,0,1,.6.41,1.87,1.87,0,0,1,.4.59,2,2,0,0,1,.14.73ZM14.89,9a.49.49,0,0,1-.38.16H12.82v2h1.47a.49.49,0,0,1,.38.16.53.53,0,0,1,.16.38.52.52,0,0,1-.16.37.49.49,0,0,1-.38.16H12.82V15a.52.52,0,0,1-.15.38.54.54,0,0,1-.38.15.52.52,0,0,1-.38-.15.53.53,0,0,1-.16-.38V8.64a.52.52,0,0,1,.16-.37.49.49,0,0,1,.38-.16h2.22a.49.49,0,0,1,.38.16.49.49,0,0,1,.16.37A.49.49,0,0,1,14.89,9Z"/></g></g></svg>