<svg xmlns="http://www.w3.org/2000/svg" width="17.219" height="14"><path data-name="svgexport-12" d="M14.531 1.141A3.492 3.492 0 0011.95 0a3.539 3.539 0 00-3.539 3.539 7.247 7.247 0 00.063.82A10.078 10.078 0 011.211.633a3.984 3.984 0 00-.508 1.766A3.634 3.634 0 002.281 5.36a3.359 3.359 0 01-1.578-.445v.062a3.555 3.555 0 002.836 3.469 7.632 7.632 0 01-.945.125l-.633-.063a3.547 3.547 0 003.281 2.461A7.469 7.469 0 01.82 12.484L0 12.42A10.086 10.086 0 005.422 14 9.966 9.966 0 0015.45 3.961c.016-.187 0-.336 0-.508a6.781 6.781 0 001.769-1.833 6.552 6.552 0 01-2.031.563A3.414 3.414 0 0016.711.222a7.051 7.051 0 01-2.211.883z" fill="#1f1f1f"/></svg>
