<svg xmlns="http://www.w3.org/2000/svg" width="19.25" height="14"><path data-name="Path 1010" d="M16.188.411V0l3.063 3.063H16.53a.342.342 0 01-.341-.341zm3.063 3.526v9.188a.875.875 0 01-.875.875H.876a.875.875 0 01-.875-.875V.875A.875.875 0 01.876 0h14.438v2.721a1.218 1.218 0 001.216 1.216zM7.439 6.562A1.314 1.314 0 006.127 5.25H4.815a.437.437 0 00-.437.438v4.375a.438.438 0 00.875 0v-1.75h.875a1.314 1.314 0 001.313-1.312zm3.938 0a1.314 1.314 0 00-1.312-1.312H8.75a.437.437 0 00-.437.438v4.375a.437.437 0 00.438.438h1.313a1.314 1.314 0 001.313-1.312zm3.938-.875a.437.437 0 00-.437-.437h-2.187a.437.437 0 00-.437.438v4.375a.438.438 0 00.875 0v-1.75H14a.438.438 0 000-.875h-.875V6.126h1.75a.437.437 0 00.438-.438zm-5.25.438H9.19v3.5h.875a.438.438 0 00.438-.437V6.563a.438.438 0 00-.44-.438zm-3.937 0h-.875v1.313h.875a.438.438 0 00.438-.437v-.437a.438.438 0 00-.441-.439z" fill="#1f1f1f"/></svg>
