<svg data-name="Component 10 – 110" xmlns="http://www.w3.org/2000/svg" width="14" height="14"><path data-name="Path 533" d="M12.635 1.365a4.674 4.674 0 00-6.6 0L5.02 2.381a.718.718 0 001.015 1.015L7.05 2.38a3.232 3.232 0 114.571 4.571l-1.015 1.015a.718.718 0 101.015 1.015l1.015-1.015a4.673 4.673 0 00-.001-6.601zm-4.668 9.239L6.952 11.62a3.232 3.232 0 01-4.571-4.571l1.015-1.016a.718.718 0 10-1.015-1.015L1.365 6.033a4.668 4.668 0 006.6 6.6l1.015-1.016a.718.718 0 10-1.015-1.015zm.86-6.446L4.158 8.826a.718.718 0 101.015 1.016l4.669-4.668a.718.718 0 00-1.015-1.016z" fill="#1f1f1f"/></svg>
