<svg data-name="Component 9 – 110" xmlns="http://www.w3.org/2000/svg" width="14" height="14"><path data-name="Path 530" d="M12.968 0H1.032A1.007 1.007 0 000 1.032v12.01A.993.993 0 001.032 14h11.936A1.007 1.007 0 0014 12.968V1.032A1.007 1.007 0 0012.968 0zM4.274 11.716H2.137V5.379h2.137zM3.168 4.495a1.066 1.066 0 01-1.179-1.106 1.1 1.1 0 011.179-1.105 1.066 1.066 0 011.179 1.105c.074.664-.442 1.106-1.179 1.106zm8.695 7.221H9.726v-3.39c0-.884-.295-1.474-1.105-1.474a1.162 1.162 0 00-1.105.737 1.254 1.254 0 00-.074.516v3.537H5.305V5.305h2.137v.884a2.132 2.132 0 011.916-1.032c1.4 0 2.432.884 2.432 2.874v3.684z" fill="#1f1f1f"/></svg>
