<?xml version="1.0" standalone="no"?>
<!DOCTYPE svg PUBLIC "-//W3C//DTD SVG 20010904//EN"
 "http://www.w3.org/TR/2001/REC-SVG-20010904/DTD/svg10.dtd">
<svg version="1.0" xmlns="http://www.w3.org/2000/svg"
 width="700.000000pt" height="700.000000pt" viewBox="0 0 700.000000 700.000000"
 preserveAspectRatio="xMidYMid meet">
<metadata>
Created by potrace 1.11, written by Peter Selinger 2001-2013
</metadata>
<g transform="translate(0.000000,700.000000) scale(0.100000,-0.100000)"
fill="#000000" stroke="none">
<path d="M3448 6395 c-2 -2 -46 -6 -98 -9 -52 -4 -102 -9 -110 -11 -8 -2 -42
-7 -75 -10 -33 -4 -129 -24 -214 -46 -428 -109 -809 -333 -1126 -661 -381
-394 -609 -875 -672 -1417 -10 -81 -10 -488 0 -556 4 -27 10 -68 13 -90 3 -22
9 -58 14 -80 5 -22 12 -56 15 -75 13 -79 83 -302 130 -415 149 -359 406 -705
700 -942 212 -170 462 -314 701 -401 144 -53 238 -77 409 -106 155 -26 194
-29 375 -29 316 -1 506 28 768 114 534 178 998 544 1294 1021 185 299 317 684
354 1038 7 75 8 450 0 495 -2 17 -8 54 -11 84 -4 30 -9 63 -11 75 -2 12 -7 35
-10 51 -125 685 -573 1311 -1187 1659 -247 140 -567 252 -802 281 -27 4 -61 9
-75 11 -50 10 -375 25 -382 19z m42 -289 l0 -226 -52 -1 c-29 0 -62 -2 -73 -3
-11 -2 -45 -6 -75 -10 -365 -47 -755 -226 -1025 -469 -22 -20 -43 -37 -47 -37
-8 0 -262 257 -282 286 -17 24 -9 35 90 119 98 82 101 84 174 137 141 100 309
191 480 260 115 47 284 99 370 113 19 3 53 10 75 15 54 11 97 18 180 25 39 4
71 8 72 8 1 1 26 3 57 5 l56 3 0 -225z m280 209 c19 -2 60 -7 90 -10 30 -4 62
-8 70 -10 8 -2 31 -7 50 -10 72 -12 260 -65 356 -100 151 -56 348 -156 481
-244 115 -77 343 -263 343 -279 0 -8 -284 -292 -292 -292 -2 0 -5 19 -7 42 -1
28 -8 46 -21 55 -10 7 -30 37 -43 66 -28 59 -81 117 -107 117 -9 0 -29 9 -42
20 -38 29 -74 40 -139 42 -48 2 -63 -2 -82 -20 l-24 -22 -84 39 c-223 103
-450 157 -739 175 l-25 2 -1 215 c0 117 2 218 4 222 4 7 134 3 212 -8z m-289
-516 c4 -7 6 -89 5 -181 -1 -126 -5 -171 -15 -177 -7 -5 -47 -12 -89 -15 -267
-24 -541 -143 -778 -337 l-71 -58 -132 133 -132 132 55 51 c250 233 627 409
961 450 27 3 70 9 95 13 55 9 91 5 101 -11z m237 6 c175 -16 425 -81 555 -144
40 -20 52 -31 51 -48 0 -13 5 -23 11 -23 22 0 55 -46 70 -98 9 -28 23 -56 32
-61 13 -7 18 -24 19 -63 3 -113 18 -135 70 -101 24 15 27 15 51 -3 30 -23 56
-89 48 -121 -6 -25 -52 -83 -66 -83 -5 0 -15 12 -21 26 -10 21 -9 27 3 35 12
8 12 11 -2 19 -9 5 -22 23 -29 39 -11 28 -68 61 -104 61 -14 0 -56 43 -89 90
-9 13 -20 20 -24 16 -4 -4 -1 -11 6 -15 7 -5 17 -28 21 -52 5 -24 12 -52 15
-62 9 -21 -12 -15 -67 21 -47 31 -48 45 -3 40 41 -5 44 6 11 47 -18 22 -27 27
-37 19 -8 -6 -32 -16 -54 -23 -34 -11 -45 -10 -70 3 -16 9 -37 16 -45 16 -8 0
-49 11 -90 24 -41 13 -109 31 -151 40 -70 14 -105 19 -217 30 -24 3 -46 7 -49
10 -8 8 -9 334 -1 356 7 20 0 20 156 5z m1672 -405 c44 -58 84 -110 90 -117
33 -40 162 -290 225 -438 49 -114 120 -376 140 -515 12 -78 13 -92 20 -212 l7
-118 -221 0 -221 0 -1 38 c-3 211 -55 445 -150 679 -34 85 -36 109 -9 116 17
4 18 9 9 35 -6 17 -23 43 -37 59 -15 16 -36 46 -46 66 -19 38 -83 107 -98 107
-4 0 -8 6 -8 13 0 8 -11 20 -25 27 -14 7 -25 18 -25 23 0 6 -29 39 -65 73 -36
34 -65 67 -65 73 0 6 66 79 148 162 l147 151 53 -58 c29 -33 89 -106 132 -164z
m-3395 78 c61 -62 123 -127 139 -145 l28 -31 -74 -89 c-105 -124 -157 -201
-227 -333 -146 -279 -224 -564 -230 -843 l-1 -38 -210 3 c-130 2 -211 7 -213
13 -4 11 -3 27 7 170 4 54 9 101 11 105 1 3 6 32 10 64 17 150 113 457 199
632 112 231 219 389 411 610 15 18 30 6 150 -118z m1495 -307 c0 -110 -4 -202
-8 -205 -5 -3 -55 -14 -112 -26 -170 -35 -290 -87 -420 -185 -30 -22 -61 -44
-67 -48 -15 -9 -247 212 -270 258 -16 29 -15 30 28 68 104 93 305 209 449 259
109 39 278 74 368 77 l32 1 0 -199z m247 180 c285 -54 524 -166 702 -327 l46
-42 -141 -141 -142 -142 -73 55 c-124 94 -310 173 -446 191 -26 3 -63 8 -82
11 -19 2 -37 7 -40 10 -7 6 -9 385 -3 398 5 9 97 2 179 -13z m-1320 -303 l64
-67 -63 -83 c-133 -174 -211 -323 -271 -513 -28 -91 -55 -243 -58 -327 l-2
-58 -189 0 -189 0 6 93 c8 134 43 317 80 433 83 252 235 521 384 677 l45 47
64 -67 c35 -38 93 -98 129 -135z m2316 -38 c7 0 33 -22 57 -50 24 -27 51 -50
59 -50 8 0 22 -7 31 -15 10 -9 27 -18 40 -20 31 -6 44 -19 112 -108 l60 -78
26 17 c15 10 35 27 44 38 17 20 18 20 32 3 30 -39 117 -313 140 -442 3 -16 8
-41 11 -54 4 -24 16 -152 19 -216 l1 -30 -187 -3 -188 -2 -1 42 c0 24 -2 52
-5 63 -11 53 -15 174 -6 212 11 47 -2 69 -32 57 -10 -4 -16 -1 -16 7 0 21 -68
198 -97 254 -14 28 -27 65 -29 83 -3 37 -19 62 -40 62 -7 0 -32 27 -54 61 -22
33 -58 77 -80 96 -22 20 -40 40 -40 45 0 4 17 26 37 49 l37 40 28 -30 c16 -17
35 -31 41 -31z m-1913 -370 c0 -3 -13 -18 -28 -35 -37 -40 -137 -199 -157
-252 -13 -33 -24 -45 -51 -53 -20 -7 -39 -22 -46 -38 -8 -16 -26 -30 -48 -37
-19 -5 -41 -14 -48 -18 -19 -13 -58 -96 -72 -154 l-12 -53 -103 0 -104 0 5 53
c12 144 35 254 79 377 57 160 168 351 274 473 l25 28 143 -143 c79 -79 143
-145 143 -148z m1753 253 c15 -20 27 -42 27 -50 0 -7 6 -13 13 -13 15 -1 79
-82 90 -115 6 -18 3 -34 -12 -58 l-20 -33 58 -44 c63 -48 85 -77 120 -158 l22
-54 -24 -22 c-14 -13 -37 -42 -51 -64 -26 -42 -52 -62 -80 -62 -19 0 -22 40
-5 57 15 15 4 58 -21 83 -30 30 -63 25 -103 -17 -31 -31 -38 -34 -51 -23 -20
16 -20 30 -1 30 28 0 15 26 -20 43 -26 12 -37 25 -41 47 -5 24 -15 33 -57 48
-44 17 -48 20 -29 26 25 8 27 17 10 34 -15 15 -49 16 -45 1 1 -6 -4 -14 -10
-16 -7 -3 -13 0 -13 5 0 6 -19 34 -42 63 l-41 52 141 139 c77 76 144 138 149
138 4 -1 20 -17 36 -37z m-1083 -192 l0 -189 -47 -7 c-58 -8 -172 -55 -225
-91 l-39 -27 -41 39 c-160 153 -217 218 -206 232 22 26 135 102 204 136 72 35
183 73 244 82 19 3 36 7 37 8 1 1 18 3 38 4 l35 3 0 -190z m276 159 c122 -34
288 -119 355 -181 32 -30 32 -57 0 -40 -20 11 -84 -1 -107 -19 -8 -7 -37 -14
-64 -14 -59 -2 -73 -12 -36 -25 14 -6 26 -15 26 -20 0 -5 8 -12 18 -15 9 -2 1
-2 -18 0 -41 6 -68 -16 -76 -61 -3 -16 -10 -38 -17 -51 l-12 -23 -62 36 c-59
32 -62 36 -49 55 15 21 10 58 -8 58 -7 0 -30 -13 -52 -28 -21 -16 -45 -27 -51
-26 -7 1 -23 2 -36 3 l-23 1 0 191 0 191 67 -5 c37 -3 102 -15 145 -27z m304
-272 c-1 -20 -26 -48 -42 -48 -26 0 -28 12 -5 36 24 26 47 31 47 12z m171 -30
l41 -42 -28 -8 c-15 -4 -30 -11 -33 -15 -3 -4 -15 -13 -26 -19 -11 -6 -22 -22
-26 -35 -5 -21 -7 -22 -14 -6 -4 9 -4 30 0 45 3 15 9 43 12 62 5 31 19 60 29
60 2 0 22 -19 45 -42z m-1283 -52 c40 -39 94 -96 119 -125 41 -51 43 -56 27
-68 -10 -7 -32 -13 -50 -13 -18 0 -44 -4 -57 -9 -21 -8 -28 -5 -47 21 -12 16
-35 35 -52 42 -34 15 -110 12 -151 -5 -54 -22 -48 -1 31 126 54 85 81 116 96
108 6 -3 44 -38 84 -77z m696 -85 c4 -5 -3 -7 -14 -4 -23 6 -26 13 -6 13 8 0
17 -4 20 -9z m-344 -41 c0 -5 -7 -10 -16 -10 -11 0 -14 -6 -9 -20 5 -17 -1
-24 -40 -41 -71 -31 -74 -18 -9 34 60 48 74 55 74 37z m150 -85 c0 -8 6 -16
13 -16 6 -1 17 -2 22 -4 6 -1 20 -3 32 -3 27 -2 82 -48 94 -79 6 -16 15 -22
31 -20 20 2 24 -5 36 -52 12 -46 11 -55 -2 -70 -23 -25 -20 -54 9 -87 14 -16
28 -39 31 -52 6 -21 8 -22 30 -7 13 8 31 15 40 15 13 0 14 -3 4 -15 -7 -8 -19
-15 -27 -15 -8 0 -23 -5 -34 -11 -16 -8 -18 -13 -8 -25 9 -11 8 -14 -7 -15
-16 0 -16 -2 4 -11 16 -8 21 -16 16 -27 -4 -9 -12 -30 -18 -48 -10 -30 -12
-31 -61 -29 -75 4 -90 -6 -120 -88 -29 -79 -33 -94 -34 -117 -3 -52 -171 -7
-280 75 l-33 25 58 29 c33 16 79 32 103 36 65 10 75 19 105 96 39 98 33 114
-47 137 -50 14 -57 18 -38 23 32 7 38 27 11 35 -27 9 -43 -5 -75 -68 -28 -53
-155 -227 -166 -227 -10 0 -71 121 -65 128 11 10 77 5 89 -7 18 -18 23 -14 65
53 32 51 38 66 28 77 -8 9 -11 33 -8 65 l4 52 35 -10 c19 -5 38 -7 41 -4 13
14 -17 25 -73 28 -52 3 -60 6 -63 24 -2 16 5 25 27 34 17 7 31 16 31 19 0 4
27 20 59 35 73 33 121 78 121 111 0 14 5 25 10 25 6 0 10 -7 10 -15z m1414
-77 c-8 -34 -7 -88 1 -97 3 -2 12 4 19 15 14 18 15 18 20 -6 11 -48 12 -119 2
-123 -26 -9 -276 -5 -282 4 -3 6 10 25 30 44 26 24 36 41 36 63 0 37 6 41 61
47 54 6 79 14 79 26 0 11 30 59 37 59 2 0 1 -15 -3 -32z m-2340 -131 c10 -7
18 -28 19 -47 2 -33 0 -35 -32 -38 -18 -2 -47 2 -63 9 -26 11 -29 16 -24 43 4
16 12 34 19 38 19 12 61 9 81 -5z m710 -96 c6 -33 5 -34 -13 -17 -15 14 -20
39 -12 66 3 12 19 -19 25 -49z m-122 -7 c5 -3 1 -15 -8 -25 -13 -15 -15 -22
-6 -31 9 -9 15 -9 24 0 16 16 30 15 54 -4 18 -15 18 -15 -5 -10 -14 3 -30 1
-35 -3 -6 -5 -30 -11 -53 -15 l-43 -6 0 55 0 55 32 -5 c17 -3 35 -8 40 -11z
m-1503 -60 c5 -5 12 -45 16 -89 3 -44 8 -91 10 -105 2 -14 7 -45 10 -70 10
-70 45 -227 61 -272 22 -62 19 -72 -16 -64 -17 3 -46 17 -65 32 l-34 26 -44
-36 c-46 -38 -67 -45 -67 -23 0 7 -6 21 -13 31 -11 14 -18 16 -32 9 -12 -7
-14 -13 -6 -17 6 -4 11 -12 11 -17 0 -6 -4 -8 -9 -4 -14 8 -31 -28 -31 -67 0
-22 -3 -29 -9 -19 -5 7 -11 9 -14 4 -3 -5 -2 -15 2 -22 5 -7 6 -21 4 -31 -3
-10 0 -21 6 -24 6 -4 11 -18 11 -30 0 -13 9 -35 20 -49 11 -14 20 -31 20 -39
0 -8 6 -23 14 -34 14 -18 16 -18 33 -1 13 13 15 22 7 35 -16 27 -11 66 9 70 9
2 17 -3 17 -11 0 -22 43 -56 79 -63 20 -4 36 -14 38 -24 3 -10 17 -24 31 -31
55 -28 83 -52 102 -90 24 -46 63 -68 106 -62 27 4 34 0 50 -26 10 -17 22 -31
26 -31 21 0 128 -81 122 -92 -3 -4 3 -8 13 -8 10 -1 29 -9 41 -20 l24 -20 -20
-27 c-12 -16 -79 -86 -151 -157 l-130 -130 -36 40 c-368 396 -592 936 -619
1491 l-4 72 37 3 c80 7 372 1 380 -8z m456 7 c6 0 12 -18 13 -38 2 -31 11
-138 14 -162 2 -23 -5 -31 -29 -31 -20 0 -40 -13 -71 -47 -56 -60 -62 -77 -67
-180 -2 -46 -7 -92 -10 -103 -7 -21 -51 -48 -72 -44 -7 1 -17 2 -23 3 -15 2
-66 183 -94 336 -10 54 -21 159 -21 209 0 44 3 51 23 55 19 5 303 7 337 2z
m255 -2 c0 -4 -18 -43 -40 -87 -39 -78 -52 -144 -30 -157 18 -11 -9 -35 -34
-31 -11 3 -26 5 -32 5 -13 1 -37 138 -38 216 -1 44 2 50 23 55 33 8 151 7 151
-1z m214 -8 c10 -11 16 -30 14 -43 -3 -20 -9 -23 -50 -26 l-47 -3 6 -32 c7
-38 21 -67 31 -67 4 0 16 14 25 30 10 17 24 30 30 30 7 0 21 -30 31 -67 42
-154 102 -275 192 -394 l42 -55 -139 -144 -139 -144 -22 22 -23 23 23 6 c22 5
23 9 17 52 -4 25 -18 70 -32 99 -29 60 -33 130 -8 165 19 27 19 37 0 37 -8 0
-16 5 -16 10 -1 6 -2 13 -3 18 -1 4 -6 22 -10 40 -4 17 -11 32 -16 32 -5 0
-10 10 -12 23 -2 17 -9 21 -30 19 -25 -2 -26 -1 -19 25 9 34 -7 78 -36 98 -18
13 -32 56 -39 128 -2 20 24 37 55 37 20 0 25 9 22 36 -2 17 19 30 74 47 28 8
53 15 56 16 3 1 14 -8 23 -18z m2379 9 c3 -3 1 -32 -4 -65 -4 -33 -11 -82 -14
-110 -26 -212 -204 -577 -350 -718 l-30 -29 -36 40 c-50 57 -59 93 -41 167 8
33 15 90 16 127 1 107 -26 120 -106 49 -39 -34 -44 -21 -8 20 16 19 30 37 30
40 0 4 12 9 28 12 29 6 47 32 94 127 18 37 27 48 27 34 1 -32 26 -36 54 -10
16 15 30 20 43 15 10 -3 22 -5 26 -2 4 2 29 6 55 9 65 8 123 23 123 33 0 4 -7
22 -16 40 -16 31 -15 33 5 47 27 19 27 40 -1 55 -18 10 -24 8 -34 -6 -7 -10
-15 -22 -16 -27 -8 -24 -43 12 -74 77 -19 39 -34 74 -34 76 0 6 258 5 263 -1z
m441 -25 c-7 -225 -67 -489 -154 -680 -17 -38 -39 -86 -48 -105 -9 -19 -31
-59 -49 -88 -18 -29 -33 -55 -33 -59 0 -13 -171 -232 -201 -257 -35 -29 -52
-26 -40 7 17 45 -13 148 -54 187 -24 23 -45 20 -45 -6 0 -8 -7 -29 -16 -46
l-16 -32 -54 56 c-30 31 -54 63 -54 71 0 9 21 39 46 69 101 119 216 325 272
493 30 88 58 226 67 327 3 29 7 60 10 69 7 22 27 24 220 24 l150 0 -1 -30z
m502 -90 c-4 -66 -8 -131 -11 -145 -2 -14 -9 -54 -15 -90 -15 -99 -17 -106
-55 -245 -100 -364 -285 -702 -522 -955 l-52 -55 -155 154 c-171 170 -165 156
-99 226 91 97 211 278 278 420 98 208 150 372 170 541 3 27 8 58 10 69 2 11 7
56 10 100 4 44 10 83 13 87 10 9 80 13 270 13 l164 0 -6 -120z m-3106 -78 c15
-15 34 -27 42 -27 10 0 15 -7 12 -17 -5 -21 11 -43 48 -67 27 -18 28 -18 37 5
9 22 10 21 10 -12 1 -22 9 -44 23 -58 l21 -24 22 64 c25 76 42 109 55 109 5 0
28 -23 50 -51 l40 -51 -19 -26 c-11 -15 -69 -76 -129 -135 l-109 -108 -43 57
c-56 75 -124 203 -149 284 -36 119 -38 109 16 95 25 -6 58 -24 73 -38z m873
-163 c2 -16 -1 -41 -6 -55 -10 -22 -11 -20 -17 26 -3 28 -4 56 -1 63 6 20 20
0 24 -34z m-358 -87 c51 -25 85 -37 165 -58 40 -10 43 -12 23 -20 -13 -5 -23
-16 -23 -25 0 -14 3 -14 15 -4 12 10 19 10 27 2 17 -17 -5 -58 -42 -77 -24
-12 -30 -22 -28 -43 3 -37 -8 -52 -38 -52 -20 0 -29 -9 -44 -44 -11 -28 -30
-51 -47 -60 -26 -13 -34 -12 -78 3 -98 35 -275 151 -275 180 0 8 56 71 125
140 l125 125 22 -21 c13 -11 46 -32 73 -46z m818 49 c3 -8 22 -16 44 -18 27
-2 39 -8 41 -21 5 -24 -24 -32 -44 -12 -9 9 -23 14 -32 10 -19 -7 -42 12 -42
36 0 22 25 26 33 5z m-529 -37 c-7 -11 -34 -12 -34 -1 0 14 11 21 26 15 8 -3
11 -9 8 -14z m346 -129 c0 -13 -10 -24 -27 -30 -16 -6 -40 -17 -55 -26 -51
-28 -32 24 22 60 34 22 60 21 60 -4z m-20 -95 c11 -13 9 -20 -10 -40 -13 -14
-39 -34 -57 -45 l-33 -19 0 29 c0 20 6 31 20 35 11 3 20 12 20 19 0 15 20 36
36 36 6 0 17 -7 24 -15z m-185 -65 c21 -22 35 -40 30 -40 -9 0 -81 80 -73 80
2 0 22 -18 43 -40z m-755 -30 c41 -32 186 -120 197 -120 5 0 14 -4 22 -9 11
-7 8 -17 -17 -47 -17 -22 -36 -58 -42 -82 -6 -24 -20 -52 -31 -63 l-21 -21 31
-36 c17 -21 55 -66 85 -102 50 -61 57 -66 112 -78 32 -6 86 -13 119 -14 70 -1
93 -7 75 -18 -12 -8 -66 -6 -147 5 -24 4 -45 6 -48 6 -25 1 -208 58 -275 86
-186 79 -392 216 -398 264 -2 20 20 49 124 157 l128 132 25 -17 c14 -9 42 -28
61 -43z m673 20 c9 -12 20 -18 30 -14 9 3 25 -4 38 -17 l22 -22 -24 -13 c-40
-22 -78 -17 -110 16 -25 25 -28 33 -19 50 14 26 45 26 63 0z m511 -65 c13 -9
54 -24 92 -35 37 -11 72 -24 78 -30 7 -7 1 -8 -19 -1 -17 5 -61 19 -98 31 -58
19 -76 24 -107 29 -5 1 22 21 28 21 1 0 13 -7 26 -15z m340 -186 c-11 -18 -24
-8 -24 19 1 26 1 26 15 8 8 -10 12 -23 9 -27z m146 -126 c30 -33 73 -80 95
-104 22 -25 51 -52 65 -61 l25 -16 -35 -37 c-36 -38 -228 -185 -290 -223 l-35
-21 1 89 c2 75 5 92 23 111 12 13 21 27 21 32 0 6 7 15 16 22 27 19 11 55 -51
116 l-55 55 67 56 c48 39 73 53 83 48 8 -5 40 -35 70 -67z m-1818 -115 c182
-103 375 -166 568 -184 41 -4 82 -8 90 -10 8 -1 18 -3 21 -3 3 -1 6 -89 8
-196 l2 -195 -78 5 c-85 6 -96 7 -228 30 -187 33 -469 148 -642 262 -135 89
-276 213 -260 229 1 2 35 -13 74 -34 l72 -37 68 34 c48 24 86 35 127 37 33 2
66 10 74 16 21 18 31 51 20 71 -13 26 2 21 84 -25z m-572 -8 c0 -5 -4 -10 -10
-10 -5 0 -10 5 -10 10 0 6 5 10 10 10 6 0 10 -4 10 -10z m1350 -110 c13 -8 13
-10 -2 -10 -9 0 -20 5 -23 10 -8 13 5 13 25 0z m1570 -302 c12 -20 -34 -66
-170 -174 -169 -133 -421 -280 -585 -339 -27 -10 -54 -22 -60 -25 -33 -23
-286 -92 -391 -106 -27 -3 -51 -8 -55 -9 -12 -8 -160 -19 -244 -20 l-89 0 -1
218 -1 217 30 1 c51 1 128 9 232 23 104 14 109 13 206 -35 28 -14 51 -11 88
15 19 13 49 26 67 30 18 4 35 15 38 24 6 16 115 92 183 126 18 10 45 30 60 46
15 15 65 54 112 86 81 55 173 126 250 192 l35 30 143 -141 c79 -78 147 -150
152 -159z m-2680 97 c152 -102 269 -162 416 -214 185 -66 302 -92 529 -116 32
-4 63 -8 66 -11 4 -2 8 -102 9 -221 l1 -216 -103 7 c-57 3 -114 8 -128 10 -14
3 -47 8 -75 11 -63 9 -84 13 -115 20 -14 3 -36 7 -50 10 -125 24 -347 106
-515 190 -219 110 -366 211 -543 372 l-54 48 156 153 156 154 62 -57 c35 -31
119 -95 188 -140z m1203 104 c56 -15 92 -73 83 -133 -9 -57 6 -86 74 -149 29
-27 51 -50 49 -52 -10 -9 -139 -24 -242 -29 -54 -2 -70 0 -76 13 -6 12 -8 319
-2 354 2 10 70 9 114 -4z"/>
<path d="M3840 6099 c-30 -11 -93 -29 -140 -40 -118 -29 -144 -52 -68 -62 23
-3 60 -19 84 -35 l42 -30 -15 44 c-19 58 -13 75 24 65 32 -8 51 -7 147 11 38
7 71 18 73 24 2 7 -17 19 -43 28 -26 9 -48 16 -48 15 -1 0 -26 -9 -56 -20z"/>
<path d="M4576 5741 c-3 -5 5 -12 18 -15 14 -3 39 -18 56 -33 26 -21 33 -24
41 -12 24 38 -6 69 -66 69 -24 0 -46 -4 -49 -9z"/>
<path d="M3940 5682 c0 -10 41 -35 47 -28 9 8 -17 36 -33 36 -8 0 -14 -3 -14
-8z"/>
<path d="M3835 5670 c3 -5 8 -10 11 -10 2 0 4 5 4 10 0 6 -5 10 -11 10 -5 0
-7 -4 -4 -10z"/>
<path d="M3886 5602 c-2 -4 -1 -14 5 -22 7 -12 9 -10 9 8 0 23 -5 28 -14 14z"/>
<path d="M3990 5490 c0 -5 5 -10 10 -10 6 0 10 5 10 10 0 6 -4 10 -10 10 -5 0
-10 -4 -10 -10z"/>
<path d="M4033 5453 c-15 -5 -17 -23 -4 -23 5 0 11 7 15 15 3 8 4 15 3 14 -1
0 -8 -3 -14 -6z"/>
<path d="M4050 5410 c0 -5 7 -10 16 -10 8 0 12 5 9 10 -3 6 -10 10 -16 10 -5
0 -9 -4 -9 -10z"/>
<path d="M4106 5407 c3 -10 9 -15 12 -12 3 3 0 11 -7 18 -10 9 -11 8 -5 -6z"/>
<path d="M4132 5359 c2 -7 10 -15 17 -17 8 -3 12 1 9 9 -2 7 -10 15 -17 17 -8
3 -12 -1 -9 -9z"/>
<path d="M3056 5001 c-7 -10 17 -21 45 -21 26 0 24 16 -3 24 -31 8 -36 8 -42
-3z"/>
<path d="M4750 4918 c0 -19 36 -52 43 -41 7 10 -1 23 -25 42 -15 11 -18 11
-18 -1z"/>
<path d="M4821 4836 c-17 -20 3 -66 29 -66 24 0 25 9 6 35 -8 11 -12 25 -9 32
7 17 -12 17 -26 -1z"/>
<path d="M4857 4733 c-26 -7 -15 -27 16 -31 15 -2 27 -1 27 2 0 12 -13 36 -19
35 -3 -1 -14 -3 -24 -6z"/>
<path d="M4890 4666 c0 -9 5 -16 10 -16 6 0 10 4 10 9 0 6 -4 13 -10 16 -5 3
-10 -1 -10 -9z"/>
<path d="M4898 4605 c-6 -7 42 -177 54 -190 6 -7 14 -4 22 8 27 36 -21 187
-59 187 -6 0 -14 -2 -17 -5z"/>
<path d="M4547 4734 c-49 -25 -55 -50 -11 -41 32 6 32 -19 0 -30 -14 -4 -38
-26 -56 -47 -25 -32 -28 -42 -18 -52 23 -23 78 -22 78 1 0 9 7 18 15 21 13 5
13 9 3 22 -10 12 -10 16 0 19 6 3 12 11 12 19 0 8 6 17 13 19 7 3 12 23 12 50
0 25 0 45 0 45 0 -1 -22 -12 -48 -26z"/>
<path d="M4608 4583 c7 -3 16 -2 19 1 4 3 -2 6 -13 5 -11 0 -14 -3 -6 -6z"/>
<path d="M3400 4570 c0 -5 5 -10 10 -10 6 0 10 5 10 10 0 6 -4 10 -10 10 -5 0
-10 -4 -10 -10z"/>
<path d="M3828 4568 c9 -9 15 -9 24 0 9 9 7 12 -12 12 -19 0 -21 -3 -12 -12z"/>
<path d="M3285 4129 c-8 -12 14 -31 30 -26 6 2 10 10 10 18 0 17 -31 24 -40 8z"/>
<path d="M3285 4010 c4 -6 11 -8 16 -5 14 9 11 15 -7 15 -8 0 -12 -5 -9 -10z"/>
<path d="M3273 3965 c-3 -9 -3 -18 0 -22 10 -10 37 6 37 22 0 20 -29 20 -37 0z"/>
<path d="M3670 3898 c0 -7 7 -22 15 -32 12 -16 15 -17 15 -4 0 24 -11 48 -21
48 -5 0 -9 -6 -9 -12z"/>
<path d="M3569 3823 c-13 -16 -12 -17 4 -4 16 13 21 21 13 21 -2 0 -10 -8 -17
-17z"/>
<path d="M3384 3605 c-8 -21 4 -35 31 -35 33 0 39 25 9 39 -32 14 -34 14 -40
-4z"/>
<path d="M4810 4080 c0 -5 5 -10 10 -10 6 0 10 5 10 10 0 6 -4 10 -10 10 -5 0
-10 -4 -10 -10z"/>
<path d="M1530 3405 c0 -18 4 -23 15 -19 8 4 15 15 15 25 0 10 -7 19 -15 19
-9 0 -15 -9 -15 -25z"/>
<path d="M1400 3400 c0 -5 5 -10 10 -10 6 0 10 5 10 10 0 6 -4 10 -10 10 -5 0
-10 -4 -10 -10z"/>
<path d="M1387 3333 c-4 -3 -7 -11 -7 -17 0 -6 5 -5 12 2 6 6 9 14 7 17 -3 3
-9 2 -12 -2z"/>
<path d="M1380 3280 c0 -5 5 -10 10 -10 6 0 10 5 10 10 0 6 -4 10 -10 10 -5 0
-10 -4 -10 -10z"/>
<path d="M1500 2990 c0 -5 5 -10 11 -10 5 0 7 5 4 10 -3 6 -8 10 -11 10 -2 0
-4 -4 -4 -10z"/>
<path d="M1592 2868 c3 -7 13 -15 22 -16 12 -3 17 1 14 10 -3 7 -13 15 -22 16
-12 3 -17 -1 -14 -10z"/>
<path d="M1650 2791 c0 -12 6 -21 15 -21 8 0 15 4 15 9 0 5 -7 14 -15 21 -13
10 -15 9 -15 -9z"/>
<path d="M2430 3742 c0 -23 38 -65 51 -57 13 8 1 25 -17 25 -8 0 -14 10 -14
25 0 14 -4 25 -10 25 -5 0 -10 -8 -10 -18z"/>
<path d="M2517 3693 c-4 -3 -7 -11 -7 -17 0 -6 5 -5 12 2 6 6 9 14 7 17 -3 3
-9 2 -12 -2z"/>
<path d="M2460 3640 c0 -33 22 -70 42 -70 32 0 33 29 2 61 -32 34 -44 37 -44
9z"/>
<path d="M2498 3513 c7 -3 16 -2 19 1 4 3 -2 6 -13 5 -11 0 -14 -3 -6 -6z"/>
<path d="M2510 3430 c0 -5 5 -10 10 -10 6 0 10 5 10 10 0 6 -4 10 -10 10 -5 0
-10 -4 -10 -10z"/>
<path d="M4510 3275 c0 -8 5 -15 10 -15 6 0 10 7 10 15 0 8 -4 15 -10 15 -5 0
-10 -7 -10 -15z"/>
<path d="M1505 6047 c-298 -159 -472 -384 -511 -660 l-7 -49 114 92 c154 124
193 162 260 253 67 89 211 332 232 390 9 24 2 22 -88 -26z"/>
<path d="M5467 6083 c-8 -7 28 -78 105 -206 92 -155 152 -238 221 -305 80 -78
277 -234 277 -220 0 44 -28 155 -55 220 -72 170 -220 339 -378 429 -82 47
-165 88 -170 82z"/>
<path d="M1038 5914 c-173 -143 -300 -376 -344 -634 -19 -110 -24 -362 -10
-470 3 -19 5 -43 5 -52 1 -27 15 -22 69 27 28 25 67 59 89 76 21 16 45 35 53
42 9 7 42 32 75 56 88 64 252 234 339 350 76 103 160 259 173 322 6 32 5 33
-12 19 -21 -17 -65 -62 -112 -113 -17 -19 -62 -57 -100 -83 -147 -103 -287
-237 -340 -326 -30 -50 -61 -66 -49 -25 28 95 46 178 61 277 24 165 107 478
146 553 14 25 6 22 -43 -19z"/>
<path d="M6027 5878 c23 -66 61 -193 88 -293 24 -90 29 -122 40 -270 8 -91 12
-132 21 -192 3 -24 4 -43 1 -43 -4 0 -24 26 -46 58 -57 84 -170 193 -300 290
-63 46 -126 98 -140 115 -37 44 -104 107 -113 107 -16 0 -7 -34 31 -115 96
-206 288 -436 491 -588 52 -40 130 -102 173 -139 44 -38 82 -68 87 -68 7 0 14
50 25 160 1 14 6 61 10 105 27 274 -28 496 -177 712 -47 68 -178 203 -197 203
-5 0 -2 -19 6 -42z"/>
<path d="M592 5409 c-74 -76 -144 -257 -191 -495 -52 -259 -54 -317 -22 -491
5 -24 4 -40 0 -37 -5 3 -9 11 -9 18 0 25 -27 48 -62 53 -29 3 -39 0 -51 -17
-15 -21 -16 -21 -25 -3 -9 15 -14 42 -26 125 -3 27 -13 31 -25 10 -16 -30 -21
-71 -26 -227 -4 -126 -8 -154 -29 -198 -111 -244 -120 -270 -121 -342 0 -65 2
-70 23 -73 19 -3 27 6 52 61 16 35 32 75 35 88 5 22 12 25 52 24 l47 0 32 -94
c49 -140 164 -362 257 -492 94 -133 163 -217 171 -208 3 3 12 43 21 90 16 96
38 163 88 269 70 151 134 372 152 530 9 74 12 257 5 300 l-5 35 -20 -22 c-12
-12 -36 -60 -54 -105 -19 -46 -67 -150 -107 -233 -39 -82 -78 -167 -86 -188
l-14 -38 -39 95 -38 95 33 67 c18 37 73 128 123 203 161 241 236 362 292 471
86 169 143 330 117 330 -6 0 -37 -33 -69 -72 -62 -77 -94 -115 -184 -212 -101
-109 -156 -178 -196 -245 -45 -75 -83 -170 -83 -207 0 -14 -4 -23 -9 -20 -4 3
-7 18 -5 33 15 129 21 511 10 593 -2 19 -7 58 -11 85 -4 28 -8 61 -11 75 -5
31 -5 196 0 230 6 41 25 115 36 144 12 33 9 33 -28 -5z m-232 -1228 c28 -68
49 -126 47 -128 -6 -5 -105 209 -113 243 -14 60 16 7 66 -115z m-179 -184 c-8
-8 -11 -5 -11 9 0 27 14 41 18 19 2 -9 -1 -22 -7 -28z m353 -237 c5 -29 8 -30
55 -30 27 0 52 -4 55 -8 2 -4 -7 -68 -21 -142 -36 -192 -37 -193 -47 -95 -4
33 -9 71 -11 85 -3 14 -7 39 -10 55 -2 17 -13 60 -23 98 -11 37 -16 67 -12 67
4 0 10 -13 14 -30z"/>
<path d="M6444 5410 c32 -123 35 -150 31 -280 -2 -74 -7 -151 -9 -170 -9 -59
-20 -212 -20 -270 0 -80 13 -362 18 -386 2 -11 1 -26 -3 -33 -5 -8 -11 3 -15
27 -9 59 -87 207 -150 285 -30 38 -100 117 -155 176 -55 58 -122 136 -150 173
-57 76 -69 85 -77 65 -16 -43 116 -330 244 -530 108 -166 189 -290 201 -304 6
-7 36 -58 68 -115 94 -171 90 -168 111 -98 6 19 33 107 61 195 50 160 84 290
97 375 7 51 7 162 -1 200 -3 14 -8 45 -11 70 -31 245 -135 541 -215 615 -32
30 -32 30 -25 5z"/>
<path d="M6837 4563 c-3 -10 -8 -40 -12 -68 -8 -57 -41 -144 -115 -300 -149
-314 -161 -343 -189 -440 -28 -100 -59 -270 -61 -329 0 -11 -2 -17 -5 -15 -5
6 -8 28 -25 159 -21 164 -40 229 -102 358 -33 70 -87 185 -119 256 -63 139
-81 163 -89 118 -13 -66 1 -303 24 -423 31 -153 53 -220 142 -426 61 -142 77
-188 86 -258 6 -47 14 -85 17 -85 11 0 112 127 172 215 30 44 59 85 65 92 7 7
44 78 84 159 90 182 137 325 166 510 11 69 11 379 0 433 -11 55 -30 77 -39 44z"/>
<path d="M940 3650 c-2 -61 -10 -105 -31 -181 -85 -313 -95 -521 -36 -769 l16
-65 -29 34 c-15 18 -52 72 -81 119 -76 125 -174 253 -285 372 -106 113 -126
137 -173 205 -27 39 -62 96 -78 128 -18 34 -32 53 -35 45 -8 -18 3 -174 17
-250 22 -124 134 -343 244 -480 81 -101 149 -162 271 -246 58 -39 149 -114
202 -166 54 -52 100 -91 103 -85 4 5 4 13 1 18 -8 13 -19 109 -19 166 0 58 13
248 18 255 6 10 19 238 19 340 0 116 -10 286 -17 298 -3 4 -8 23 -11 42 -8 51
-44 158 -72 210 l-23 45 -1 -35z"/>
<path d="M6095 3640 c-32 -61 -74 -199 -86 -283 -19 -129 -17 -406 5 -612 24
-222 24 -325 0 -422 -4 -13 -2 -23 3 -23 4 0 51 43 103 95 58 58 141 128 213
177 311 213 503 543 521 893 4 87 -3 92 -36 28 -46 -89 -114 -181 -213 -288
-154 -166 -240 -281 -364 -481 -17 -28 -41 -60 -53 -70 -21 -19 -21 -19 -14 1
40 105 65 408 43 515 -4 19 -9 49 -12 65 -13 71 -18 95 -42 179 -13 50 -30
128 -37 175 l-12 86 -19 -35z"/>
<path d="M1136 2819 c3 -124 11 -221 25 -309 6 -36 12 -78 15 -94 19 -143 109
-389 197 -535 38 -64 72 -120 75 -126 7 -13 -42 32 -197 181 -110 106 -157
149 -246 223 -38 31 -140 109 -250 189 -60 44 -157 128 -214 186 -57 58 -106
106 -108 106 -15 0 81 -231 139 -337 220 -398 592 -649 1023 -689 l65 -6 -26
56 c-15 33 -35 112 -49 190 -45 257 -109 453 -219 676 -64 131 -171 316 -210
365 l-23 28 3 -104z"/>
<path d="M5868 2842 c-182 -273 -337 -646 -379 -912 -24 -149 -44 -231 -71
-284 l-20 -39 69 7 c92 9 128 15 193 33 242 66 415 167 590 342 116 116 184
209 258 352 46 88 127 288 120 295 -2 2 -55 -47 -118 -109 -63 -62 -186 -165
-272 -229 -131 -98 -254 -196 -304 -243 -6 -5 -78 -73 -159 -150 -80 -77 -151
-142 -157 -144 -9 -3 22 52 62 109 28 40 96 179 124 254 25 65 78 268 91 346
21 122 38 427 25 435 -4 3 -27 -26 -52 -63z"/>
<path d="M1565 2272 c31 -104 140 -364 204 -489 118 -226 183 -309 295 -373
33 -18 55 -35 50 -37 -10 -3 -159 41 -399 117 -119 38 -258 77 -306 85 -111
20 -287 74 -364 112 -27 14 -75 43 -105 63 -53 37 -100 58 -100 45 0 -23 167
-226 232 -281 113 -96 229 -174 340 -227 101 -49 295 -90 423 -90 56 0 216 13
225 18 3 1 28 6 55 9 69 10 190 34 251 51 l52 15 -102 102 c-83 85 -115 126
-181 238 -124 209 -224 346 -359 489 -64 69 -183 178 -205 190 -20 11 -20 10
-6 -37z"/>
<path d="M5341 2173 c-170 -171 -283 -317 -409 -528 -97 -161 -98 -162 -210
-277 -42 -43 -74 -79 -71 -82 7 -7 231 -55 284 -61 28 -3 61 -7 75 -10 30 -6
193 -19 235 -18 185 1 435 87 609 209 118 82 397 382 366 392 -11 4 -54 -18
-138 -72 -85 -55 -250 -116 -383 -141 -11 -2 -28 -6 -37 -9 -9 -3 -33 -8 -52
-11 -40 -7 -196 -52 -315 -91 -44 -14 -93 -30 -110 -34 -16 -5 -68 -20 -115
-34 -47 -15 -98 -29 -114 -32 -25 -4 -27 -3 -16 11 7 8 20 15 30 15 20 0 86
43 115 75 94 104 135 167 220 341 75 155 104 223 152 354 49 133 54 150 41
150 -6 0 -77 -66 -157 -147z"/>
<path d="M2929 1246 c-2 -2 -51 -7 -108 -10 -57 -4 -120 -9 -140 -12 -93 -14
-313 -54 -319 -58 -4 -2 -23 -7 -42 -10 -19 -3 -91 -19 -160 -35 -69 -16 -136
-32 -150 -35 -14 -2 -79 -17 -145 -31 -97 -22 -147 -27 -260 -28 -96 0 -147 3
-164 12 -13 7 -21 9 -17 3 3 -5 41 -26 83 -47 203 -97 425 -144 683 -144 246
1 358 25 680 149 210 81 295 107 375 117 78 10 149 10 155 0 3 -5 -44 -29
-105 -55 -228 -98 -416 -222 -558 -367 -62 -64 -79 -91 -64 -103 27 -21 80
-43 86 -35 4 4 25 30 47 58 73 92 231 240 324 302 122 82 298 166 373 177 84
13 300 -88 482 -225 114 -86 175 -145 298 -287 l27 -32 40 20 c22 11 40 27 40
34 0 38 -156 187 -290 277 -101 68 -338 191 -424 219 -55 18 -29 28 61 23 117
-5 197 -26 400 -103 208 -79 345 -126 389 -134 16 -3 63 -12 104 -20 50 -10
132 -15 250 -14 148 1 196 5 314 29 165 33 212 47 329 101 91 43 112 61 53 48
-38 -8 -203 -6 -276 5 -43 6 -221 45 -455 100 -60 14 -126 28 -145 31 -19 3
-37 7 -40 9 -6 4 -233 43 -310 53 -63 9 -404 8 -470 -1 -30 -4 -71 -12 -90
-17 -19 -5 -48 -11 -65 -13 -16 -3 -67 -15 -113 -26 -78 -20 -87 -21 -140 -7
-162 43 -266 62 -397 71 -49 3 -102 8 -116 11 -14 2 -28 2 -30 0z"/>
</g>
</svg>
